<svg width="1200" height="280" viewBox="0 0 1200 280" fill="none" xmlns="http://www.w3.org/2000/svg">
  <defs>
    <linearGradient id="background" x1="0" y1="0" x2="1200" y2="280" gradientUnits="userSpaceOnUse">
      <stop stop-color="#0B1220"/>
      <stop offset="0.55" stop-color="#172554"/>
      <stop offset="1" stop-color="#0F766E"/>
    </linearGradient>
    <linearGradient id="accent" x1="720" y1="40" x2="1110" y2="250" gradientUnits="userSpaceOnUse">
      <stop stop-color="#38BDF8" stop-opacity="0.9"/>
      <stop offset="1" stop-color="#2DD4BF" stop-opacity="0.25"/>
    </linearGradient>
    <filter id="glow" x="-50%" y="-50%" width="200%" height="200%">
      <feGaussianBlur stdDeviation="12" result="blur"/>
      <feMerge>
        <feMergeNode in="blur"/>
        <feMergeNode in="SourceGraphic"/>
      </feMerge>
    </filter>
  </defs>
  <rect width="1200" height="280" rx="18" fill="url(#background)"/>
  <circle cx="1040" cy="80" r="120" fill="url(#accent)" opacity="0.32" filter="url(#glow)"/>
  <circle cx="1120" cy="225" r="170" stroke="#5EEAD4" stroke-opacity="0.2" stroke-width="2"/>
  <circle cx="1000" cy="205" r="92" stroke="#7DD3FC" stroke-opacity="0.25" stroke-width="2"/>
  <path d="M780 40L1130 240M850 20L1180 210M710 120L980 270" stroke="#BAE6FD" stroke-opacity="0.16"/>
  <g opacity="0.7" stroke="#67E8F9" stroke-width="2">
    <path d="M840 95h80v55h-80z"/>
    <path d="M880 150v42M840 122h-46v45h46M920 122h56v45h-56"/>
    <circle cx="816" cy="190" r="8" fill="#67E8F9"/>
    <circle cx="944" cy="190" r="8" fill="#67E8F9"/>
  </g>
  <text x="70" y="105" fill="#F8FAFC" font-family="Arial, Helvetica, sans-serif" font-size="42" font-weight="700">ISHMAEL MOLELWANE</text>
  <text x="74" y="150" fill="#A5F3FC" font-family="Arial, Helvetica, sans-serif" font-size="22" font-weight="600">Computer Systems Engineering Student</text>
  <text x="74" y="191" fill="#CBD5E1" font-family="Arial, Helvetica, sans-serif" font-size="17">Software | Networking | Hardware | Systems</text>
  <rect x="74" y="218" width="280" height="3" rx="1.5" fill="#2DD4BF"/>
</svg>
